# xmcd
#
# Track frame offsets:
#	150
#	12492
#	22787
#	37512
#	47777
#	57107
#	69410
#	79262
#	91892
#	102185
#	113562
#	124955
#	134560
#	145547
#	157762
#	168622
#	179012
#
# Disc length: 2527 seconds
#
# Revision: 6
# Processed by: cddbd v1.5.2PL0 Copyright (c) Steve Scherf et al.
# Submitted via: audiograbber 1.83.01
#
DISCID=d409dd11
DTITLE=Flatt and Scruggs - The Essential Flatt and Scruggs: 'Tis Sweet To Be Rememb
DTITLE=ered... [Disc 2]
DYEAR=1997
DGENRE=Bluegrass
TTITLE0=Polka On A Banjo
TTITLE1=Just Ain't
TTITLE2=Go Home
TTITLE3=The Legend Of The Johnson Boys
TTITLE4=The Ballad Of Jed Clampett (Theme from 'The Beverly Hillbillies')
TTITLE5=New York Town
TTITLE6=Pearl Pearl Pearl
TTITLE7=My Saro Jane
TTITLE8=I'm Troubled
TTITLE9=You Are My Flower
TTITLE10=Petticoat Junction
TTITLE11=Workin' It Out
TTITLE12=I Still Miss Someone
TTITLE13=Nashville Cats
TTITLE14=California Up Tight Band
TTITLE15=Down In The Flood
TTITLE16=Foggy Mountain Breakdown (Theme from 'Bonnie And Clyde')
EXTD=All Recordings on Disc 2 are in stero except tracks 1 -3, 14 and 15 Which ar
EXTD=e Mono. YEAR: 1997
EXTT0=
EXTT1=
EXTT2=
EXTT3=
EXTT4=
EXTT5=
EXTT6=
EXTT7=
EXTT8=Previously Unissued
EXTT9=
EXTT10=
EXTT11=
EXTT12=
EXTT13=
EXTT14=
EXTT15=
EXTT16=
PLAYORDER=
